HIERARCHY
ROOT root
{
	OFFSET	0	13.1	24.9
	CHANNELS 6  Xposition Yposition Zposition Xrotation Yrotation Zrotation
	JOINT spine_1
	{
		OFFSET	0	9.99999	0
		CHANNELS 3  Xrotation Yrotation Zrotation
		JOINT spine_2
		{
			OFFSET	0	112	-10
			CHANNELS 3  Xrotation Yrotation Zrotation
			JOINT spine_3
			{
				OFFSET	0	206.5	19.3
				CHANNELS 3  Xrotation Yrotation Zrotation
				JOINT spine_4
				{
					OFFSET	0	110.4	14.6
					CHANNELS 3  Xrotation Yrotation Zrotation
					JOINT neck_1
					{
						OFFSET	0	71.8	-50.3
						CHANNELS 3  Xrotation Yrotation Zrotation
						JOINT neck_2
						{
							OFFSET	0	86.2	-25.8
							CHANNELS 3  Xrotation Yrotation Zrotation
							JOINT head_ee
							{
								OFFSET	0	179.8	-8.7
								CHANNELS 3  Xrotation Yrotation Zrotation
								End Site
								{
									OFFSET	1	0	0
								}
							}
						}
					}
					JOINT left_clavicle
					{
						OFFSET	-43.2	22.4	-70.8
						CHANNELS 3  Xrotation Yrotation Zrotation
						JOINT left_shoulder
						{
							OFFSET	-93.9	-5.79999	48.7
							CHANNELS 3  Xrotation Yrotation Zrotation
							JOINT left_elbow
							{
								OFFSET	-291.4	-30.8	15.2
								CHANNELS 3  Xrotation Yrotation Zrotation
								JOINT left_lowarm_twist
								{
									OFFSET	-110.7	-3.89999	13.6
									CHANNELS 3  Xrotation Yrotation Zrotation
									JOINT left_hand
									{
										OFFSET	-110.7	-3.89999	13.6
										CHANNELS 3  Xrotation Yrotation Zrotation
										JOINT left_ee
										{
											OFFSET	-80.8	-5.10001	12.1
											CHANNELS 3  Xrotation Yrotation Zrotation
											End Site
											{
												OFFSET	1	0	0
											}
										}
									}
								}
							}
						}
					}
					JOINT right_clavicle
					{
						OFFSET	43.2	22.4	-70.8
						CHANNELS 3  Xrotation Yrotation Zrotation
						JOINT right_shoulder
						{
							OFFSET	93.9	-5.79999	48.7
							CHANNELS 3  Xrotation Yrotation Zrotation
							JOINT right_elbow
							{
								OFFSET	291.4	-30.8	15.2
								CHANNELS 3  Xrotation Yrotation Zrotation
								JOINT right_lowarm_twist
								{
									OFFSET	110.7	-3.89999	13.6
									CHANNELS 3  Xrotation Yrotation Zrotation
									JOINT right_hand
									{
										OFFSET	110.7	-3.89999	13.6
										CHANNELS 3  Xrotation Yrotation Zrotation
										JOINT right_ee
										{
											OFFSET	80.8	-5.10001	12.1
											CHANNELS 3  Xrotation Yrotation Zrotation
											End Site
											{
												OFFSET	1	0	0
											}
										}
									}
								}
							}
						}
					}
				}
			}
		}
	}
	JOINT left_hip
	{
		OFFSET	-82.8	-127.5	0.300001
		CHANNELS 3  Xrotation Yrotation Zrotation
		JOINT left_knee
		{
			OFFSET	-28.2	-396.7	2.2
			CHANNELS 3  Xrotation Yrotation Zrotation
			JOINT left_ankle
			{
				OFFSET	-11.7	-411.3	35.4
				CHANNELS 3  Xrotation Yrotation Zrotation
				JOINT left_toes
				{
					OFFSET	0	-60	-88.6
					CHANNELS 3  Xrotation Yrotation Zrotation
					JOINT left_foot_ee
					{
						OFFSET	-22.5	-16.5	-42.2
						CHANNELS 3  Xrotation Yrotation Zrotation
						End Site
						{
							OFFSET	1	0	0
						}
					}
				}
			}
		}
	}
	JOINT right_hip
	{
		OFFSET	82.8	-127.5	0.300001
		CHANNELS 3  Xrotation Yrotation Zrotation
		JOINT right_knee
		{
			OFFSET	28.2	-396.7	2.2
			CHANNELS 3  Xrotation Yrotation Zrotation
			JOINT right_ankle
			{
				OFFSET	11.7	-411.3	35.4
				CHANNELS 3  Xrotation Yrotation Zrotation
				JOINT right_toes
				{
					OFFSET	0	-60	-88.6
					CHANNELS 3  Xrotation Yrotation Zrotation
					JOINT right_foot_ee
					{
						OFFSET	22.5	-16.5	-42.2
						CHANNELS 3  Xrotation Yrotation Zrotation
						End Site
						{
							OFFSET	1	0	0
						}
					}
				}
			}
		}
	}
}
MOTION
Frames: 5
Frame Time: 0.02
391.555 721.904 -1204.45 -166.162950613 -7.27396930665 -177.810113555 5.82247 0.20334 -0.525737 5.82259 0.236381 -0.511733 5.82036 0.291222 -0.482635 5.8201 0.211345 -0.52257 -14.6696 -3.22987 3.9941 -14.6854 -8.56592 2.72912 -0.0 0.0 -0.0 8.25242 19.2896 14.7751 -42.4347 -25.1215 49.4379 0.709427 -19.363 0.12103 12.4323 0.269481 -1.56215 -0.107703 -0.289483 -0.841813 -0.0 0.0 -0.0 4.62517 8.62746 -8.4925 -31.0685 15.6675 -60.1649 0.85803 23.0274 -0.174785 29.9111 -0.0690944 3.77722 -0.612056 -15.7695 -2.66079 0.0 0.0 0.0 17.5516 -22.2506 1.6554 -17.2836 0.318085 2.62322 30.0973 -0.110951 -3.92153 -20.9084 0.0 0.0 -0.0 0.0 -0.0 14.0827 7.57653 6.19752 -7.6235 -0.237997 -1.14491 6.17843 -18.7411 0.904664 2.17772 -0.0 -0.0 0.0 0.0 0.0 
391.555 721.904 -1204.45 -166.176689928 -6.82258392984 -177.922082388 5.82247 0.20334 -0.525737 5.82259 0.236381 -0.511733 5.82036 0.291222 -0.482635 5.8201 0.211345 -0.52257 -14.6696 -3.22987 3.9941 -14.6854 -8.56592 2.72912 -0.0 0.0 -0.0 8.25242 19.2896 14.7751 -42.4347 -25.1215 49.4379 0.709427 -19.363 0.12103 12.4323 0.269481 -1.56215 -0.107703 -0.289483 -0.841813 -0.0 0.0 -0.0 4.62517 8.62746 -8.4925 -31.0685 15.6675 -60.1649 0.85803 23.0274 -0.174785 29.9111 -0.0690944 3.77722 -0.612056 -15.7695 -2.66079 0.0 0.0 0.0 17.5516 -22.2506 1.6554 -17.2836 0.318085 2.62322 30.0973 -0.110951 -3.92153 -20.9084 0.0 0.0 -0.0 0.0 -0.0 14.0827 7.57653 6.19752 -7.6235 -0.237997 -1.14491 6.17843 -18.7411 0.904664 2.17772 -0.0 -0.0 0.0 0.0 0.0 
403.244204004 720.151 -1193.29107376 -162.257948091 -28.471544007 -170.525098329 5.75253 0.11696 -0.152804 5.75253 0.126446 -0.145052 5.75221 0.141783 -0.130101 5.75221 0.119456 -0.15086 -13.3466 3.40632 0.714619 -13.3698 6.04176 1.71454 -0.0 0.0 -0.0 7.07806 18.569 12.9928 -44.4276 -25.0392 49.5141 0.596977 -16.4744 0.0864222 15.3447 0.283206 -1.93385 0.112724 7.60344 3.89809 -0.0 0.0 -0.0 7.48614 8.14518 -14.4779 -26.2479 17.5277 -56.1252 0.96091 25.4543 -0.217034 27.1303 -0.146098 3.43038 -1.96447 -12.0318 7.4886 0.0 0.0 0.0 23.8872 -27.359 1.1323 -20.0621 0.294896 3.04885 36.4072 7.21234 -4.53527 -19.7609 0.0 0.0 -0.0 0.0 -0.0 10.6774 4.15901 5.6635 -3.62361 -0.132143 -0.54032 7.93289 -18.8327 1.15592 0.667708 -0.0 -0.0 0.0 0.0 0.0 
410.955184142 716.632 -1189.09113662 -162.400664738 -29.5644189604 -169.650468869 5.80541 0.0992236 -0.247638 5.80544 0.11478 -0.240823 5.80493 0.140625 -0.226704 5.80487 0.103056 -0.246068 -13.6864 5.23565 0.543153 -13.7522 9.64496 2.14073 -0.0 0.0 -0.0 6.58531 16.1564 12.3666 -45.005 -23.5686 51.3779 0.645351 -17.7286 0.100648 16.7984 0.282984 -2.11952 0.398552 6.374 5.26774 -0.0 0.0 -0.0 7.85944 7.92667 -15.2706 -26.5229 17.6211 -54.8272 1.15928 29.8667 -0.309194 25.5663 -0.181979 3.23382 -1.85513 -11.691 6.95468 0.0 0.0 0.0 23.873 -27.4202 0.760425 -23.0508 0.246948 3.5049 39.0482 7.52295 -4.77876 -19.864 0.0 0.0 -0.0 0.0 -0.0 10.1657 3.44496 5.52738 -4.22183 -0.150657 -0.630262 8.96725 -17.4841 1.29698 0.64672 -0.0 -0.0 0.0 0.0 0.0 
415.016073369 714.625 -1187.22650336 -161.885343204 -31.6260482482 -168.747513392 5.88826 0.0833775 -0.265417 5.88829 0.100098 -0.259574 5.88781 0.127741 -0.247145 5.88773 0.0871058 -0.264217 -12.8658 6.96127 -0.175271 -12.9786 13.3471 1.90743 -0.0 0.0 -0.0 6.24677 13.7022 11.9219 -45.5278 -22.5602 52.6254 0.684849 -18.7398 0.113007 18.0175 0.279166 -2.27518 0.677016 6.80002 7.26491 -0.0 0.0 -0.0 8.14763 7.61472 -15.8859 -26.5685 17.8009 -53.9353 1.2914 32.6065 -0.377727 24.3662 -0.205863 3.08239 -1.86474 -11.2232 7.24042 0.0 0.0 0.0 24.4153 -26.6107 0.553909 -24.2584 0.220835 3.68838 40.1016 9.50611 -4.88188 -19.5139 0.0 0.0 -0.0 0.0 -0.0 9.83116 3.18981 5.42279 -4.10377 -0.147077 -0.612496 10.7003 -17.3654 1.53841 0.798147 -0.0 -0.0 0.0 0.0 0.0 
